<svg xmlns="http://www.w3.org/2000/svg" width="362" height="301" viewBox="0 0 362 301" fill="none"><g clip-path="url(#clip0_1527_443)"><rect width="362" height="301" fill="white"></rect><path fill-rule="evenodd" clip-rule="evenodd" d="M74.4297 301.351C160.373 238.803 246.66 203.369 334.052 192.563C257.464 212.703 186.811 248.872 123.114 301.415L74.4297 301.351Z" fill="url(#paint0_linear_1527_443)"></path><path fill-rule="evenodd" clip-rule="evenodd" d="M24.601 150.777L49.0687 150.401V135.855C50.028 108.444 83.7632 102.24 94.0027 125.762C98.0872 142.401 92.6943 155.786 81.1984 170.639L6.58594 267.055V300.953H68.6872L100.301 279.27L28.5853 279.317L28.4838 275.05C51.4965 246.437 73.9865 217.172 96.0627 187.389C99.9111 182.653 103.602 177.8 106.81 172.584C113.859 162.748 116.841 153.941 118.707 146.239C120.121 140.402 119.822 134.799 119.59 129.153C118.449 101.368 92.2722 83.3012 60.0306 89.8056C51.5677 91.5127 39.802 98.6874 36.1436 104.49C27.7146 116.114 24.8826 132.729 24.601 150.777Z" fill="url(#paint1_radial_1527_443)"></path><path fill-rule="evenodd" clip-rule="evenodd" d="M0.203182 150.818L24.6048 150.778C24.9826 135.242 27.15 124.263 29.9103 116.888C33.6513 106.892 36.2522 104.124 40.4325 100.327C65.5789 77.4894 115.523 89.4222 119.039 126.183C119.833 134.479 121.761 144.075 112.162 163.387C106.062 175.66 96.3324 186.716 85.7049 200.712C69.2819 222.34 49.7085 248.028 28.4522 274.92V279.42H100.083L134.723 257.632H69.1583C77.2038 246.99 84.6124 237.762 91.8102 228.781C112.413 203.073 128.174 184.616 135.106 168.293C146.003 146.183 146.91 125.648 139.169 107.769C134.809 97.7004 128.549 88.5345 117.903 80.5689C109.476 74.2632 102.504 71.329 92.85 68.9484C60.2551 63.0862 32.0223 69.0283 12.0822 97.4077C2.70803 109.797 -0.940619 127.911 0.203182 150.818Z" fill="url(#paint2_linear_1527_443)"></path><path fill-rule="evenodd" clip-rule="evenodd" d="M156.582 84.2041C164.709 84.2255 172.5 83.8932 180.706 83.7376L181.275 68.6998C182.235 41.2889 215.97 35.0855 226.209 58.6074C230.294 75.2466 228.184 81.2889 213.08 103.354L138.793 199.9L138.629 234.196L178.441 234.393C196.88 225.956 215.174 218.401 232.272 212.282L160.885 211.825L160.934 207.833C183.783 178.688 206.43 149.729 228.716 120.397C232.794 115.833 236.933 110.231 239.84 104.789C246.259 94.6619 248.823 86.6828 250.914 79.0839C252.507 73.2933 252.354 66.9538 252.122 61.3068C250.981 33.5216 224.002 15.4319 191.761 21.9362C183.298 23.6433 171.336 32.0593 167.677 37.862C159.434 49.5716 157.048 66.2418 156.582 84.2041Z" fill="url(#paint3_radial_1527_443)"></path><path fill-rule="evenodd" clip-rule="evenodd" d="M132.371 84.2008L156.669 84.206C157.048 68.6693 159.318 57.0309 162.078 49.6561C165.82 39.6597 168.42 36.8915 172.6 33.0951C197.747 10.257 247.69 22.1898 251.207 58.9504C252.001 67.2466 253.929 76.8425 244.33 96.1542C238.23 108.428 228.501 119.484 217.873 133.48C201.45 155.108 181.877 180.796 160.62 207.688V212.187L231.626 212.515C245.952 207.745 260.806 203.386 276.23 199.47L276.25 190.87L201.327 190.4C209.372 179.758 216.781 170.53 223.978 161.549C244.581 135.841 260.342 117.384 267.274 101.061C278.171 78.9508 278.678 58.2446 270.937 40.3652C266.577 30.2965 260.397 22.0799 249.751 14.1143C241.324 7.80859 234.306 4.64539 224.652 2.26483C196.224 -4.16759 163.035 2.48657 144.25 30.1754C134.876 42.5647 131.227 61.2938 132.371 84.2008Z" fill="url(#paint4_linear_1527_443)"></path><path fill-rule="evenodd" clip-rule="evenodd" d="M163.907 301.413H123.098C182.715 252.055 248.243 213.993 334.054 192.562C269.712 219.772 211.508 258.652 163.907 301.413Z" fill="url(#paint5_linear_1527_443)"></path><path d="M242.54 256.76H247.16V257.12H246.9C246.7 257.12 246.44 257.2 246.12 257.36C245.8 257.52 245.52 257.72 245.28 257.96C245.04 258.2 244.707 258.667 244.28 259.36L241.08 264.38V267.7C241.08 268.513 241.173 269.02 241.36 269.22C241.6 269.5 241.993 269.64 242.54 269.64H242.96V270H237.34V269.64H237.8C238.36 269.64 238.76 269.473 239 269.14C239.147 268.913 239.22 268.433 239.22 267.7V264.58L235.58 259.02L234.7 257.8C234.593 257.693 234.28 257.5 233.76 257.22C233.587 257.153 233.393 257.12 233.18 257.12V256.76H238.84V257.12H238.56C238.227 257.12 237.933 257.193 237.68 257.34C237.44 257.487 237.32 257.7 237.32 257.98C237.32 258.22 237.52 258.64 237.92 259.24L240.68 263.52L243.28 259.44C243.667 258.827 243.86 258.367 243.86 258.06C243.86 257.913 243.82 257.76 243.74 257.6C243.673 257.507 243.533 257.393 243.32 257.26C243.107 257.167 242.847 257.12 242.54 257.12V256.76ZM251.614 257.48V262.72H254.514C255.26 262.72 255.767 262.607 256.034 262.38C256.407 262.047 256.594 261.52 256.594 260.8H256.974V265.4H256.594C256.514 264.72 256.42 264.293 256.314 264.12C256.22 263.92 256.02 263.753 255.714 263.62C255.42 263.487 255.02 263.42 254.514 263.42H251.614V267.8C251.614 268.4 251.634 268.753 251.674 268.86C251.714 268.967 251.8 269.067 251.934 269.16C252.067 269.24 252.327 269.28 252.714 269.28H254.954C255.687 269.28 256.22 269.233 256.554 269.14C256.9 269.033 257.234 268.82 257.554 268.5C257.7 268.353 257.807 268.24 257.874 268.16C257.94 268.08 258.04 267.94 258.174 267.74L258.794 266.68H259.194L258.054 270H247.854V269.64H248.314C248.647 269.64 248.94 269.567 249.194 269.42C249.394 269.34 249.534 269.193 249.614 268.98C249.694 268.767 249.734 268.327 249.734 267.66V259.06C249.734 258.22 249.654 257.7 249.494 257.5C249.24 257.247 248.847 257.12 248.314 257.12H247.854V256.76H258.054L258.194 259.66H257.814C257.667 258.913 257.514 258.433 257.354 258.22C257.207 257.98 256.96 257.78 256.614 257.62C256.36 257.527 255.907 257.48 255.254 257.48H251.614ZM268.82 265.56H263.68L262.78 267.66C262.567 268.22 262.46 268.6 262.46 268.8C262.46 269 262.547 269.18 262.72 269.34C262.907 269.46 263.327 269.56 263.98 269.64V270H259.82V269.64C260.367 269.533 260.727 269.407 260.9 269.26C261.22 268.94 261.587 268.307 262 267.36L266.66 256.46H267L271.6 267.48C272 268.36 272.333 268.933 272.6 269.2C272.733 269.32 272.92 269.433 273.16 269.54C273.387 269.607 273.627 269.64 273.88 269.64V270H268.66V269.64C269.153 269.64 269.5 269.56 269.7 269.4C269.9 269.24 270 269.047 270 268.82C270 268.527 269.873 268.08 269.62 267.48L268.82 265.56ZM268.54 264.84L266.3 259.5L263.98 264.84H268.54ZM287.614 270H284.074L279.594 263.8L278.774 263.82H278.514L278.214 263.8V267.66C278.214 268.5 278.3 269.013 278.474 269.2C278.727 269.493 279.1 269.64 279.594 269.64H280.114V270H274.434V269.64H274.934C275.494 269.64 275.894 269.46 276.134 269.1C276.267 268.9 276.334 268.42 276.334 267.66V259.1C276.334 258.273 276.247 257.753 276.074 257.54C275.807 257.26 275.427 257.12 274.934 257.12H274.434V256.76H279.254C280.694 256.76 281.734 256.867 282.374 257.08C283.027 257.24 283.587 257.607 284.054 258.18C284.534 258.74 284.774 259.4 284.774 260.16C284.774 260.987 284.514 261.693 283.994 262.28C283.474 262.853 282.647 263.28 281.514 263.56L284.234 267.36C284.367 267.533 284.48 267.68 284.574 267.8C284.787 268.067 284.967 268.28 285.114 268.44C285.38 268.733 285.627 268.953 285.854 269.1C286.294 269.38 286.88 269.56 287.614 269.64V270ZM278.214 263.2H278.534H278.754C279.994 263.2 280.94 262.933 281.594 262.4C282.247 261.853 282.574 261.153 282.574 260.3C282.574 259.5 282.314 258.833 281.794 258.3C281.274 257.767 280.587 257.5 279.734 257.5C279.387 257.5 278.88 257.56 278.214 257.68V263.2ZM296.594 256.46V261.04H296.234C296.154 260.2 295.947 259.507 295.614 258.96C295.32 258.413 294.88 257.993 294.294 257.7C294.027 257.553 293.747 257.44 293.454 257.36C293.174 257.28 292.88 257.24 292.574 257.24C291.894 257.24 291.334 257.453 290.894 257.88C290.454 258.28 290.234 258.74 290.234 259.26C290.234 259.62 290.374 259.993 290.654 260.38C291.027 260.833 291.987 261.48 293.534 262.32C294.227 262.667 294.754 262.96 295.114 263.2C295.514 263.44 295.834 263.66 296.074 263.86C296.5 264.18 296.84 264.593 297.094 265.1C297.347 265.593 297.474 266.1 297.474 266.62C297.474 267.62 297.087 268.487 296.314 269.22C295.54 269.94 294.54 270.3 293.314 270.3C293.167 270.3 293.014 270.293 292.854 270.28C292.694 270.28 292.487 270.26 292.234 270.22L290.974 269.86C290.347 269.66 289.947 269.56 289.774 269.56C289.614 269.56 289.48 269.607 289.374 269.7C289.307 269.807 289.24 270.007 289.174 270.3H288.814V265.76H289.174C289.334 266.707 289.547 267.413 289.814 267.88C290.094 268.333 290.54 268.733 291.154 269.08C291.767 269.387 292.42 269.54 293.114 269.54C293.914 269.54 294.554 269.327 295.034 268.9C295.514 268.46 295.754 267.953 295.754 267.38C295.754 267.033 295.66 266.713 295.474 266.42C295.314 266.1 295.034 265.78 294.634 265.46C294.487 265.34 293.794 264.927 292.554 264.22L291.114 263.38L290.134 262.7C289.654 262.3 289.294 261.88 289.054 261.44C288.814 261 288.694 260.5 288.694 259.94C288.694 259.02 289.054 258.207 289.774 257.5C290.12 257.153 290.54 256.893 291.034 256.72C291.527 256.547 292.034 256.46 292.554 256.46C292.9 256.46 293.227 256.493 293.534 256.56C293.854 256.627 294.08 256.687 294.214 256.74C294.36 256.78 294.554 256.86 294.794 256.98L295.574 257.22C295.72 257.22 295.847 257.173 295.954 257.08C296.06 257.013 296.154 256.807 296.234 256.46H296.594ZM310.867 256.46C312.587 256.46 314.074 257.113 315.327 258.42C316.594 259.727 317.227 261.353 317.227 263.3C317.227 265.287 316.587 266.953 315.307 268.3C314.04 269.633 312.507 270.3 310.707 270.3C308.907 270.3 307.38 269.66 306.127 268.38C304.874 267.1 304.247 265.42 304.247 263.34C304.247 261.26 304.967 259.54 306.407 258.18C307.66 257.033 309.147 256.46 310.867 256.46ZM310.667 257.16C309.52 257.16 308.574 257.6 307.827 258.48C306.934 259.573 306.487 261.18 306.487 263.3C306.487 265.42 306.947 267.08 307.867 268.28C308.574 269.16 309.514 269.6 310.687 269.6C311.354 269.6 311.927 269.487 312.407 269.26C312.887 269.033 313.34 268.667 313.767 268.16C314.58 267.147 314.987 265.613 314.987 263.56C314.987 261.28 314.54 259.593 313.647 258.5C312.914 257.607 311.92 257.16 310.667 257.16ZM322.08 257.48V262.68H324.48C325.014 262.68 325.414 262.56 325.68 262.32C325.947 262.08 326.127 261.593 326.22 260.86H326.58V265.36H326.22C326.22 264.853 326.147 264.473 326 264.22C325.92 263.98 325.754 263.8 325.5 263.68C325.26 263.56 324.92 263.5 324.48 263.5H322.08V267.66C322.08 268.327 322.107 268.753 322.16 268.94C322.227 269.113 322.394 269.28 322.66 269.44C322.954 269.573 323.234 269.64 323.5 269.64H323.98V270H318.3V269.64H318.78C319.287 269.64 319.68 269.48 319.96 269.16C320.12 268.96 320.2 268.46 320.2 267.66V259.1C320.2 258.407 320.154 257.967 320.06 257.78C320.02 257.607 319.887 257.467 319.66 257.36C319.394 257.2 319.1 257.12 318.78 257.12H318.3V256.76H328.16L328.28 259.66H327.94C327.78 259.073 327.58 258.627 327.34 258.32C327.167 258.053 326.907 257.847 326.56 257.7C326.227 257.553 325.707 257.48 325 257.48H322.08Z" fill="black"></path><path d="M237.18 279.48V284.72H240.08C240.827 284.72 241.333 284.607 241.6 284.38C241.973 284.047 242.16 283.52 242.16 282.8H242.54V287.4H242.16C242.08 286.72 241.987 286.293 241.88 286.12C241.787 285.92 241.587 285.753 241.28 285.62C240.987 285.487 240.587 285.42 240.08 285.42H237.18V289.8C237.18 290.4 237.2 290.753 237.24 290.86C237.28 290.967 237.367 291.067 237.5 291.16C237.633 291.24 237.893 291.28 238.28 291.28H240.52C241.253 291.28 241.787 291.233 242.12 291.14C242.467 291.033 242.8 290.82 243.12 290.5C243.267 290.353 243.373 290.24 243.44 290.16C243.507 290.08 243.607 289.94 243.74 289.74L244.36 288.68H244.76L243.62 292H233.42V291.64H233.88C234.213 291.64 234.507 291.567 234.76 291.42C234.96 291.34 235.1 291.193 235.18 290.98C235.26 290.767 235.3 290.327 235.3 289.66V281.06C235.3 280.22 235.22 279.7 235.06 279.5C234.807 279.247 234.413 279.12 233.88 279.12H233.42V278.76H243.62L243.76 281.66H243.38C243.233 280.913 243.08 280.433 242.92 280.22C242.773 279.98 242.527 279.78 242.18 279.62C241.927 279.527 241.473 279.48 240.82 279.48H237.18ZM253.387 284.66L256.227 288.9C256.987 290.06 257.573 290.807 257.987 291.14C258.173 291.287 258.393 291.407 258.647 291.5C258.913 291.593 259.173 291.64 259.427 291.64V292H253.747V291.64C254.133 291.64 254.393 291.607 254.527 291.54C254.687 291.487 254.807 291.407 254.887 291.3C254.967 291.193 255.027 291.053 255.067 290.88C255.067 290.747 255.04 290.62 254.987 290.5L254.807 290.12C254.74 289.973 254.613 289.793 254.427 289.58L252.187 286.18L249.407 289.74L248.887 290.48L248.807 290.88C248.807 291.093 248.9 291.273 249.087 291.42C249.273 291.567 249.6 291.64 250.067 291.64V292H245.367V291.64C245.727 291.6 246.007 291.533 246.207 291.44L246.807 291.14L247.387 290.74L248.067 290.08L248.627 289.44L251.767 285.48L249.147 281.66C248.467 280.66 247.867 279.987 247.347 279.64C247.12 279.493 246.853 279.367 246.547 279.26C246.387 279.22 246.24 279.187 246.107 279.16C245.973 279.133 245.82 279.12 245.647 279.12V278.76H251.767V279.12C251.287 279.12 250.94 279.2 250.727 279.36C250.513 279.52 250.407 279.693 250.407 279.88C250.407 280.107 250.56 280.453 250.867 280.92L252.907 283.96L255.247 280.98C255.513 280.66 255.673 280.44 255.727 280.32C255.78 280.2 255.82 280.047 255.847 279.86C255.847 279.74 255.813 279.627 255.747 279.52C255.68 279.4 255.553 279.307 255.367 279.24C255.193 279.16 254.88 279.12 254.427 279.12V278.76H259.127V279.12C258.887 279.12 258.727 279.133 258.647 279.16L258.227 279.3C257.867 279.42 257.547 279.62 257.267 279.9L256.727 280.44L256.027 281.3L253.387 284.66ZM271.7 278.46L272 282.96H271.7C271.313 281.64 270.74 280.68 269.98 280.08C269.233 279.467 268.333 279.16 267.28 279.16C266.387 279.16 265.593 279.38 264.9 279.82C264.22 280.26 263.66 280.973 263.22 281.96C263.127 282.187 263.04 282.427 262.96 282.68C262.893 282.92 262.827 283.213 262.76 283.56C262.707 283.893 262.667 284.213 262.64 284.52C262.613 284.827 262.6 285.187 262.6 285.6C262.6 286.813 262.793 287.86 263.18 288.74C263.567 289.607 264.147 290.273 264.92 290.74C265.707 291.207 266.587 291.44 267.56 291.44C268.413 291.44 269.18 291.26 269.86 290.9C270.54 290.527 271.253 289.793 272 288.7L272.3 288.9C271.647 290.06 270.867 290.92 269.96 291.48C269.067 292.027 268.02 292.3 266.82 292.3C264.62 292.3 262.927 291.487 261.74 289.86C260.833 288.647 260.38 287.22 260.38 285.58C260.38 284.273 260.673 283.06 261.26 281.94C261.86 280.807 262.673 279.947 263.7 279.36C264.727 278.76 265.867 278.46 267.12 278.46C268.093 278.46 269.04 278.693 269.96 279.16C270.147 279.267 270.34 279.34 270.54 279.38C270.7 279.38 270.853 279.313 271 279.18L271.18 278.94L271.36 278.46H271.7ZM277.18 279.48V284.72H280.08C280.827 284.72 281.333 284.607 281.6 284.38C281.973 284.047 282.16 283.52 282.16 282.8H282.54V287.4H282.16C282.08 286.72 281.987 286.293 281.88 286.12C281.787 285.92 281.587 285.753 281.28 285.62C280.987 285.487 280.587 285.42 280.08 285.42H277.18V289.8C277.18 290.4 277.2 290.753 277.24 290.86C277.28 290.967 277.367 291.067 277.5 291.16C277.633 291.24 277.893 291.28 278.28 291.28H280.52C281.253 291.28 281.787 291.233 282.12 291.14C282.467 291.033 282.8 290.82 283.12 290.5C283.267 290.353 283.373 290.24 283.44 290.16C283.507 290.08 283.607 289.94 283.74 289.74L284.36 288.68H284.76L283.62 292H273.42V291.64H273.88C274.213 291.64 274.507 291.567 274.76 291.42C274.96 291.34 275.1 291.193 275.18 290.98C275.26 290.767 275.3 290.327 275.3 289.66V281.06C275.3 280.22 275.22 279.7 275.06 279.5C274.807 279.247 274.413 279.12 273.88 279.12H273.42V278.76H283.62L283.76 281.66H283.38C283.233 280.913 283.08 280.433 282.92 280.22C282.773 279.98 282.527 279.78 282.18 279.62C281.927 279.527 281.473 279.48 280.82 279.48H277.18ZM296.687 288.34L297.007 288.4L295.887 292H285.627V291.64H286.127C286.687 291.64 287.087 291.46 287.327 291.1C287.46 290.873 287.527 290.387 287.527 289.64V281.1C287.527 280.273 287.44 279.753 287.267 279.54C287 279.26 286.62 279.12 286.127 279.12H285.627V278.76H291.627V279.12C290.907 279.12 290.413 279.187 290.147 279.32C289.893 279.44 289.707 279.613 289.587 279.84C289.467 280.053 289.407 280.547 289.407 281.32V289.64C289.407 290.2 289.447 290.56 289.527 290.72C289.62 290.867 289.753 290.98 289.927 291.06C290.1 291.127 290.607 291.16 291.447 291.16H292.407C293.473 291.16 294.2 291.087 294.587 290.94C294.973 290.78 295.333 290.513 295.667 290.14C296.013 289.753 296.353 289.153 296.687 288.34ZM308.913 288.34L309.233 288.4L308.113 292H297.853V291.64H298.353C298.913 291.64 299.313 291.46 299.553 291.1C299.686 290.873 299.753 290.387 299.753 289.64V281.1C299.753 280.273 299.666 279.753 299.493 279.54C299.226 279.26 298.846 279.12 298.353 279.12H297.853V278.76H303.853V279.12C303.133 279.12 302.64 279.187 302.373 279.32C302.12 279.44 301.933 279.613 301.813 279.84C301.693 280.053 301.633 280.547 301.633 281.32V289.64C301.633 290.2 301.673 290.56 301.753 290.72C301.846 290.867 301.98 290.98 302.153 291.06C302.326 291.127 302.833 291.16 303.673 291.16H304.633C305.7 291.16 306.426 291.087 306.813 290.94C307.2 290.78 307.56 290.513 307.893 290.14C308.24 289.753 308.58 289.153 308.913 288.34ZM313.86 279.48V284.72H316.76C317.506 284.72 318.013 284.607 318.28 284.38C318.653 284.047 318.84 283.52 318.84 282.8H319.22V287.4H318.84C318.76 286.72 318.666 286.293 318.56 286.12C318.466 285.92 318.266 285.753 317.96 285.62C317.666 285.487 317.266 285.42 316.76 285.42H313.86V289.8C313.86 290.4 313.88 290.753 313.92 290.86C313.96 290.967 314.046 291.067 314.18 291.16C314.313 291.24 314.573 291.28 314.96 291.28H317.2C317.933 291.28 318.466 291.233 318.8 291.14C319.146 291.033 319.48 290.82 319.8 290.5C319.946 290.353 320.053 290.24 320.12 290.16C320.186 290.08 320.286 289.94 320.42 289.74L321.04 288.68H321.44L320.3 292H310.1V291.64H310.56C310.893 291.64 311.186 291.567 311.44 291.42C311.64 291.34 311.78 291.193 311.86 290.98C311.94 290.767 311.98 290.327 311.98 289.66V281.06C311.98 280.22 311.9 279.7 311.74 279.5C311.486 279.247 311.093 279.12 310.56 279.12H310.1V278.76H320.3L320.44 281.66H320.06C319.913 280.913 319.76 280.433 319.6 280.22C319.453 279.98 319.206 279.78 318.86 279.62C318.606 279.527 318.153 279.48 317.5 279.48H313.86ZM321.646 278.76H325.246L333.326 288.68V281.06C333.326 280.26 333.24 279.747 333.066 279.52C332.826 279.253 332.44 279.12 331.906 279.12H331.466V278.76H336.066V279.12H335.606C335.046 279.12 334.646 279.287 334.406 279.62C334.26 279.847 334.186 280.327 334.186 281.06V292.22H333.846L325.106 281.56V289.7C325.106 290.5 325.193 291.007 325.366 291.22C325.633 291.5 326.013 291.64 326.506 291.64H326.986V292H322.366V291.64H322.826C323.413 291.64 323.813 291.473 324.026 291.14C324.173 290.913 324.246 290.433 324.246 289.7V280.5L323.746 279.94L323.366 279.6L322.986 279.42L322.466 279.2C322.386 279.173 322.293 279.153 322.186 279.14C322.08 279.127 321.9 279.12 321.646 279.12V278.76ZM348.38 278.46L348.68 282.96H348.38C347.993 281.64 347.42 280.68 346.66 280.08C345.913 279.467 345.013 279.16 343.96 279.16C343.067 279.16 342.273 279.38 341.58 279.82C340.9 280.26 340.34 280.973 339.9 281.96C339.807 282.187 339.72 282.427 339.64 282.68C339.573 282.92 339.507 283.213 339.44 283.56C339.387 283.893 339.347 284.213 339.32 284.52C339.293 284.827 339.28 285.187 339.28 285.6C339.28 286.813 339.473 287.86 339.86 288.74C340.247 289.607 340.827 290.273 341.6 290.74C342.387 291.207 343.267 291.44 344.24 291.44C345.093 291.44 345.86 291.26 346.54 290.9C347.22 290.527 347.933 289.793 348.68 288.7L348.98 288.9C348.327 290.06 347.547 290.92 346.64 291.48C345.747 292.027 344.7 292.3 343.5 292.3C341.3 292.3 339.607 291.487 338.42 289.86C337.513 288.647 337.06 287.22 337.06 285.58C337.06 284.273 337.353 283.06 337.94 281.94C338.54 280.807 339.353 279.947 340.38 279.36C341.407 278.76 342.547 278.46 343.8 278.46C344.773 278.46 345.72 278.693 346.64 279.16C346.827 279.267 347.02 279.34 347.22 279.38C347.38 279.38 347.533 279.313 347.68 279.18L347.86 278.94L348.04 278.46H348.38ZM353.86 279.48V284.72H356.76C357.506 284.72 358.013 284.607 358.28 284.38C358.653 284.047 358.84 283.52 358.84 282.8H359.22V287.4H358.84C358.76 286.72 358.666 286.293 358.56 286.12C358.466 285.92 358.266 285.753 357.96 285.62C357.666 285.487 357.266 285.42 356.76 285.42H353.86V289.8C353.86 290.4 353.88 290.753 353.92 290.86C353.96 290.967 354.046 291.067 354.18 291.16C354.313 291.24 354.573 291.28 354.96 291.28H357.2C357.933 291.28 358.466 291.233 358.8 291.14C359.146 291.033 359.48 290.82 359.8 290.5C359.946 290.353 360.053 290.24 360.12 290.16C360.186 290.08 360.286 289.94 360.42 289.74L361.04 288.68H361.44L360.3 292H350.1V291.64H350.56C350.893 291.64 351.186 291.567 351.44 291.42C351.64 291.34 351.78 291.193 351.86 290.98C351.94 290.767 351.98 290.327 351.98 289.66V281.06C351.98 280.22 351.9 279.7 351.74 279.5C351.486 279.247 351.093 279.12 350.56 279.12H350.1V278.76H360.3L360.44 281.66H360.06C359.913 280.913 359.76 280.433 359.6 280.22C359.453 279.98 359.206 279.78 358.86 279.62C358.606 279.527 358.153 279.48 357.5 279.48H353.86Z" fill="#FB8A2E"></path></g><defs><linearGradient id="paint0_linear_1527_443" x1="74.4714" y1="301.478" x2="334.082" y2="183.724" gradientUnits="userSpaceOnUse"><stop></stop><stop offset="1" stop-color="#CCCCCC"></stop></linearGradient><radialGradient id="paint1_radial_1527_443" cx="0" cy="0" r="1" gradientUnits="userSpaceOnUse" gradientTransform="translate(22.9985 103.155) rotate(66.1254) scale(216.332 142.252)"><stop stop-color="#FFA44F"></stop><stop offset="0.376421" stop-color="#FFB877"></stop><stop offset="0.485654" stop-color="#FFB46F"></stop><stop offset="0.967521" stop-color="#FC8E29"></stop></radialGradient><linearGradient id="paint2_linear_1527_443" x1="-32.6087" y1="112.452" x2="132.488" y2="279.443" gradientUnits="userSpaceOnUse"><stop stop-color="#FC7F0C"></stop><stop offset="0.423397" stop-color="#FFB877"></stop><stop offset="0.624098" stop-color="#FFB46F"></stop><stop offset="0.811527" stop-color="#FC7F0C"></stop></linearGradient><radialGradient id="paint3_radial_1527_443" cx="0" cy="0" r="1" gradientUnits="userSpaceOnUse" gradientTransform="translate(155.105 35.3773) rotate(66.1739) scale(217.582 142.854)"><stop stop-color="#FFA44F"></stop><stop offset="0.376421" stop-color="#FFB877"></stop><stop offset="0.485654" stop-color="#FFB46F"></stop><stop offset="0.967521" stop-color="#FC8E29"></stop></radialGradient><linearGradient id="paint4_linear_1527_443" x1="99.5977" y1="45.5466" x2="264.697" y2="212.343" gradientUnits="userSpaceOnUse"><stop stop-color="#FC7F0C"></stop><stop offset="0.423397" stop-color="#FFB877"></stop><stop offset="0.624098" stop-color="#FFB46F"></stop><stop offset="0.811527" stop-color="#FC7F0C"></stop></linearGradient><linearGradient id="paint5_linear_1527_443" x1="123.132" y1="301.476" x2="347.06" y2="218.945" gradientUnits="userSpaceOnUse"><stop stop-color="#CCCCCC"></stop><stop offset="1"></stop></linearGradient><clipPath id="clip0_1527_443"><rect width="362" height="301" fill="white"></rect></clipPath></defs></svg>