<svg xmlns="http://www.w3.org/2000/svg" xmlns:xlink="http://www.w3.org/1999/xlink" width="350" viewBox="0 0 262.5 74.999997" height="100" preserveAspectRatio="xMidYMid meet"><defs><clipPath id="b3cff0299e"><path d="M 0 0.0703125 L 262 0.0703125 L 262 74.925781 L 0 74.925781 Z M 0 0.0703125 " clip-rule="nonzero"></path></clipPath><clipPath id="e7f84bc0fc"><path d="M 84 50 L 236 50 L 236 66.820312 L 84 66.820312 Z M 84 50 " clip-rule="nonzero"></path></clipPath><clipPath id="790bbd9769"><path d="M 21.050781 7.570312 L 49 7.570312 L 49 39 L 21.050781 39 Z M 21.050781 7.570312 " clip-rule="nonzero"></path></clipPath><clipPath id="bc2c30cc65"><path d="M 31 15 L 83 15 L 83 66.820312 L 31 66.820312 Z M 31 15 " clip-rule="nonzero"></path></clipPath><clipPath id="f41ebbc236"><path d="M 231 42 L 241.550781 42 L 241.550781 53 L 231 53 Z M 231 42 " clip-rule="nonzero"></path></clipPath></defs><g clip-path="url(#b3cff0299e)"><path fill="#ffffff" d="M 0 0.0703125 L 262.5 0.0703125 L 262.5 82.570312 L 0 82.570312 Z M 0 0.0703125 " fill-opacity="1" fill-rule="nonzero"></path><path fill="#ffffff" d="M 0 0.0703125 L 262.5 0.0703125 L 262.5 75.070312 L 0 75.070312 Z M 0 0.0703125 " fill-opacity="1" fill-rule="nonzero"></path><path fill="#ffffff" d="M 0 0.0703125 L 262.5 0.0703125 L 262.5 75.070312 L 0 75.070312 Z M 0 0.0703125 " fill-opacity="1" fill-rule="nonzero"></path></g><g clip-path="url(#e7f84bc0fc)"><path fill="#373435" d="M 87.234375 58.890625 L 85.398438 58.890625 C 85.382812 58.6875 85.375 58.527344 85.375 58.410156 C 85.375 57.246094 85.8125 56.453125 86.695312 56.027344 C 87.574219 55.609375 89.222656 55.398438 91.644531 55.398438 C 93.542969 55.398438 94.90625 55.480469 95.742188 55.652344 C 96.574219 55.828125 97.222656 56.152344 97.699219 56.640625 C 98.085938 57.03125 98.34375 57.492188 98.460938 58.023438 C 98.578125 58.554688 98.640625 59.484375 98.640625 60.816406 L 98.640625 66.683594 L 96.882812 66.683594 L 96.917969 65.382812 L 96.820312 65.382812 C 96.382812 65.988281 95.855469 66.382812 95.238281 66.558594 C 94.621094 66.734375 93.460938 66.824219 91.75 66.824219 C 89.792969 66.824219 88.4375 66.773438 87.671875 66.683594 C 86.914062 66.585938 86.335938 66.394531 85.941406 66.09375 C 85.550781 65.8125 85.277344 65.476562 85.121094 65.085938 C 84.96875 64.695312 84.894531 64.148438 84.894531 63.445312 C 84.894531 62.585938 85.007812 61.925781 85.238281 61.460938 C 85.472656 61 85.859375 60.65625 86.414062 60.433594 C 87.007812 60.171875 88.402344 60.042969 90.59375 60.042969 C 92.886719 60.042969 94.382812 60.113281 95.09375 60.25 C 95.800781 60.386719 96.34375 60.71875 96.730469 61.242188 L 96.882812 61.242188 L 96.882812 60.042969 C 96.882812 59.070312 96.707031 58.363281 96.351562 57.933594 C 96.035156 57.550781 95.558594 57.289062 94.921875 57.152344 C 94.28125 57.019531 93.234375 56.949219 91.785156 56.949219 C 89.875 56.949219 88.640625 57.0625 88.078125 57.28125 C 87.519531 57.503906 87.238281 57.992188 87.238281 58.742188 C 87.238281 58.785156 87.238281 58.832031 87.238281 58.894531 Z M 91.757812 61.601562 C 90.308594 61.601562 89.289062 61.625 88.707031 61.679688 C 88.128906 61.730469 87.714844 61.828125 87.472656 61.96875 C 87.011719 62.238281 86.777344 62.746094 86.777344 63.476562 C 86.777344 64.207031 87.050781 64.699219 87.601562 64.957031 C 88.046875 65.167969 89.554688 65.273438 92.125 65.273438 C 94 65.273438 95.238281 65.152344 95.84375 64.90625 C 96.449219 64.667969 96.75 64.175781 96.75 63.433594 C 96.75 62.714844 96.414062 62.230469 95.738281 61.980469 C 95.0625 61.730469 93.734375 61.605469 91.757812 61.605469 Z M 102.175781 52.789062 L 103.941406 52.789062 L 103.941406 55.550781 L 111.765625 55.550781 L 111.765625 57.050781 L 103.941406 57.050781 L 103.941406 61.886719 C 103.957031 62.9375 103.984375 63.582031 104.027344 63.820312 C 104.0625 64.050781 104.179688 64.289062 104.363281 64.523438 C 104.585938 64.796875 104.914062 64.988281 105.355469 65.105469 C 105.792969 65.21875 106.4375 65.273438 107.285156 65.273438 C 108.082031 65.273438 108.65625 65.21875 109.019531 65.109375 C 109.378906 65 109.660156 64.800781 109.867188 64.511719 C 110 64.308594 110.085938 64.0625 110.132812 63.785156 C 110.175781 63.503906 110.195312 63.027344 110.195312 62.355469 L 110.195312 61.648438 L 111.953125 61.648438 L 111.953125 62.355469 C 111.953125 63.207031 111.914062 63.851562 111.828125 64.296875 C 111.75 64.734375 111.589844 65.125 111.367188 65.460938 C 111.03125 65.945312 110.542969 66.292969 109.890625 66.503906 C 109.238281 66.71875 108.328125 66.820312 107.148438 66.820312 C 105.9375 66.820312 104.992188 66.726562 104.316406 66.527344 C 103.636719 66.332031 103.128906 66.011719 102.796875 65.566406 C 102.558594 65.234375 102.390625 64.859375 102.304688 64.425781 C 102.21875 64 102.175781 63.347656 102.175781 62.46875 L 102.175781 57.046875 L 99.429688 57.046875 L 99.429688 55.546875 L 102.175781 55.546875 L 102.175781 52.785156 Z M 113.320312 55.550781 L 115.085938 55.550781 L 115.085938 66.683594 L 113.320312 66.683594 Z M 113.320312 50.667969 L 115.085938 50.667969 L 115.085938 52.753906 L 113.320312 52.753906 Z M 116.890625 61.671875 L 118.972656 61.671875 C 118.972656 61.851562 118.976562 61.96875 118.984375 62.023438 C 119 62.925781 119.066406 63.527344 119.179688 63.828125 C 119.296875 64.136719 119.542969 64.371094 119.925781 64.535156 C 120.523438 64.796875 122.472656 64.921875 125.777344 64.921875 C 128.171875 64.921875 129.894531 64.808594 130.933594 64.570312 C 131.964844 64.34375 132.476562 63.550781 132.476562 62.1875 C 132.476562 61.5 132.394531 60.980469 132.226562 60.636719 C 132.0625 60.285156 131.78125 60.042969 131.382812 59.902344 C 130.984375 59.761719 130.417969 59.675781 129.699219 59.652344 C 128.976562 59.628906 126.632812 59.621094 122.667969 59.621094 C 121.332031 59.621094 120.265625 59.496094 119.464844 59.25 C 118.664062 59.003906 118.050781 58.613281 117.617188 58.070312 C 117.105469 57.433594 116.851562 56.453125 116.851562 55.148438 C 116.851562 53.703125 117.257812 52.65625 118.066406 52.003906 C 118.457031 51.6875 118.894531 51.441406 119.375 51.277344 C 119.851562 51.113281 120.523438 50.980469 121.386719 50.875 C 122.804688 50.703125 124.492188 50.621094 126.449219 50.621094 C 128.265625 50.621094 129.664062 50.710938 130.652344 50.898438 C 131.640625 51.082031 132.414062 51.394531 132.964844 51.839844 C 133.417969 52.210938 133.726562 52.640625 133.894531 53.132812 C 134.066406 53.625 134.15625 54.382812 134.171875 55.410156 L 132.03125 55.410156 C 132.03125 55.285156 132.03125 55.199219 132.03125 55.160156 C 132.03125 54.382812 131.945312 53.855469 131.773438 53.585938 C 131.519531 53.175781 130.972656 52.875 130.128906 52.695312 C 129.285156 52.515625 128.023438 52.425781 126.351562 52.425781 C 124.273438 52.425781 122.710938 52.507812 121.671875 52.664062 C 120.632812 52.820312 119.929688 53.078125 119.558594 53.4375 C 119.210938 53.78125 119.039062 54.351562 119.039062 55.152344 C 119.039062 55.871094 119.125 56.382812 119.296875 56.6875 C 119.46875 56.992188 119.808594 57.226562 120.308594 57.382812 C 121.042969 57.613281 122.449219 57.738281 124.527344 57.753906 C 125.234375 57.761719 126.980469 57.769531 129.765625 57.777344 C 130.921875 57.785156 131.804688 57.898438 132.421875 58.109375 C 133.039062 58.320312 133.542969 58.683594 133.933594 59.199219 C 134.417969 59.855469 134.664062 60.796875 134.664062 62.015625 C 134.664062 63.179688 134.464844 64.101562 134.066406 64.773438 C 133.585938 65.558594 132.695312 66.082031 131.398438 66.34375 C 130.097656 66.613281 127.769531 66.746094 124.398438 66.746094 C 122.617188 66.746094 121.304688 66.695312 120.460938 66.585938 C 119.617188 66.480469 118.949219 66.289062 118.457031 66.003906 C 117.855469 65.667969 117.445312 65.238281 117.21875 64.71875 C 116.988281 64.203125 116.875 63.425781 116.875 62.394531 C 116.875 62.34375 116.878906 62.105469 116.886719 61.675781 Z M 143 55.410156 C 144.757812 55.410156 146.054688 55.460938 146.890625 55.570312 C 147.726562 55.675781 148.382812 55.867188 148.855469 56.148438 C 149.5625 56.570312 150.070312 57.171875 150.386719 57.949219 C 150.699219 58.726562 150.855469 59.789062 150.855469 61.121094 C 150.855469 62.605469 150.667969 63.738281 150.289062 64.511719 C 150.015625 65.097656 149.652344 65.558594 149.1875 65.886719 C 148.730469 66.214844 148.125 66.449219 147.382812 66.597656 C 146.660156 66.746094 145.457031 66.824219 143.777344 66.824219 C 142.191406 66.824219 140.996094 66.769531 140.1875 66.664062 C 139.378906 66.558594 138.726562 66.371094 138.222656 66.09375 C 137.472656 65.695312 136.9375 65.109375 136.617188 64.332031 C 136.296875 63.550781 136.136719 62.460938 136.136719 61.0625 C 136.136719 59.5 136.367188 58.3125 136.832031 57.507812 C 137.300781 56.679688 137.953125 56.125 138.785156 55.839844 C 139.617188 55.558594 141.023438 55.414062 143.003906 55.40625 Z M 143.28125 56.957031 C 142.113281 56.957031 141.230469 57.003906 140.632812 57.085938 C 140.039062 57.171875 139.5625 57.332031 139.210938 57.554688 C 138.792969 57.824219 138.492188 58.242188 138.300781 58.816406 C 138.113281 59.394531 138.019531 60.175781 138.019531 61.167969 C 138.019531 62.292969 138.144531 63.136719 138.398438 63.695312 C 138.648438 64.253906 139.082031 64.652344 139.695312 64.882812 C 140.367188 65.144531 141.683594 65.273438 143.636719 65.273438 C 144.910156 65.273438 145.84375 65.226562 146.449219 65.132812 C 147.046875 65.035156 147.523438 64.867188 147.878906 64.605469 C 148.269531 64.332031 148.550781 63.921875 148.71875 63.375 C 148.886719 62.828125 148.972656 62.058594 148.972656 61.066406 C 148.972656 59.890625 148.839844 59.03125 148.570312 58.484375 C 148.273438 57.871094 147.777344 57.46875 147.082031 57.265625 C 146.386719 57.058594 145.121094 56.960938 143.285156 56.960938 Z M 151.40625 57.050781 L 151.40625 55.546875 L 153.902344 55.546875 C 153.9375 54.445312 154.003906 53.652344 154.109375 53.179688 C 154.214844 52.703125 154.421875 52.292969 154.726562 51.949219 C 155.113281 51.507812 155.621094 51.203125 156.253906 51.027344 C 156.886719 50.851562 157.894531 50.738281 159.285156 50.691406 L 161.324219 50.628906 L 161.324219 52.132812 L 159.425781 52.191406 C 158.414062 52.226562 157.683594 52.289062 157.238281 52.382812 C 156.796875 52.484375 156.460938 52.65625 156.234375 52.910156 C 156.039062 53.121094 155.910156 53.382812 155.847656 53.691406 C 155.792969 54.007812 155.75 54.625 155.726562 55.546875 L 161.324219 55.546875 L 161.324219 57.046875 L 155.667969 57.046875 L 155.667969 66.679688 L 153.902344 66.679688 L 153.902344 57.046875 L 151.40625 57.046875 Z M 164.730469 52.789062 L 166.496094 52.789062 L 166.496094 55.550781 L 174.316406 55.550781 L 174.316406 57.050781 L 166.496094 57.050781 L 166.496094 61.886719 C 166.511719 62.9375 166.539062 63.582031 166.578125 63.820312 C 166.613281 64.050781 166.730469 64.289062 166.917969 64.523438 C 167.140625 64.796875 167.46875 64.988281 167.910156 65.105469 C 168.347656 65.21875 168.992188 65.273438 169.839844 65.273438 C 170.636719 65.273438 171.210938 65.21875 171.570312 65.109375 C 171.933594 65 172.214844 64.800781 172.417969 64.511719 C 172.550781 64.308594 172.640625 64.0625 172.683594 63.785156 C 172.726562 63.503906 172.75 63.027344 172.75 62.355469 L 172.75 61.648438 L 174.503906 61.648438 L 174.503906 62.355469 C 174.503906 63.207031 174.464844 63.851562 174.378906 64.296875 C 174.300781 64.734375 174.144531 65.125 173.917969 65.460938 C 173.585938 65.945312 173.09375 66.292969 172.441406 66.503906 C 171.789062 66.71875 170.878906 66.820312 169.699219 66.820312 C 168.492188 66.820312 167.546875 66.726562 166.867188 66.527344 C 166.1875 66.332031 165.679688 66.011719 165.351562 65.566406 C 165.109375 65.234375 164.945312 64.859375 164.855469 64.425781 C 164.773438 64 164.726562 63.347656 164.726562 62.46875 L 164.726562 57.046875 L 161.980469 57.046875 L 161.980469 55.546875 L 164.726562 55.546875 L 164.726562 52.785156 Z M 174.824219 50.667969 L 193.089844 50.667969 L 193.089844 52.546875 L 185.046875 52.546875 L 185.046875 66.679688 L 182.902344 66.679688 L 182.902344 52.546875 L 174.824219 52.546875 Z M 202.769531 63.246094 L 204.621094 63.246094 C 204.589844 64.574219 204.117188 65.503906 203.210938 66.027344 C 202.296875 66.554688 200.714844 66.820312 198.449219 66.820312 C 196.582031 66.820312 195.160156 66.75 194.195312 66.605469 C 193.226562 66.460938 192.492188 66.214844 192 65.871094 C 190.871094 65.074219 190.304688 63.496094 190.304688 61.140625 C 190.304688 59.492188 190.542969 58.253906 191.023438 57.425781 C 191.476562 56.636719 192.136719 56.101562 192.992188 55.824219 C 193.855469 55.546875 195.289062 55.40625 197.296875 55.40625 C 199.222656 55.40625 200.609375 55.503906 201.464844 55.710938 C 202.324219 55.914062 203.003906 56.308594 203.515625 56.882812 C 203.9375 57.367188 204.234375 57.933594 204.390625 58.574219 C 204.546875 59.214844 204.628906 60.191406 204.648438 61.503906 L 192.195312 61.503906 C 192.246094 62.890625 192.519531 63.835938 193.019531 64.355469 C 193.359375 64.703125 193.902344 64.945312 194.640625 65.074219 C 195.382812 65.203125 196.589844 65.269531 198.261719 65.269531 C 199.527344 65.269531 200.453125 65.207031 201.042969 65.09375 C 201.632812 64.976562 202.070312 64.757812 202.363281 64.449219 C 202.578125 64.207031 202.71875 63.804688 202.773438 63.242188 Z M 202.691406 60.003906 C 202.683594 58.921875 202.394531 58.160156 201.816406 57.730469 C 201.441406 57.441406 200.914062 57.242188 200.234375 57.125 C 199.554688 57.015625 198.558594 56.957031 197.246094 56.957031 C 196.101562 56.957031 195.230469 57.011719 194.625 57.117188 C 194.027344 57.222656 193.558594 57.40625 193.21875 57.675781 C 192.664062 58.101562 192.34375 58.878906 192.253906 60.003906 Z M 218.210938 62.65625 L 220.011719 62.65625 C 219.988281 64.011719 219.679688 64.996094 219.082031 65.613281 C 218.648438 66.066406 218.066406 66.378906 217.335938 66.554688 C 216.597656 66.734375 215.511719 66.820312 214.066406 66.820312 C 212.132812 66.820312 210.707031 66.75 209.777344 66.609375 C 208.851562 66.46875 208.140625 66.21875 207.648438 65.847656 C 206.558594 65.027344 206.011719 63.457031 206.011719 61.140625 C 206.011719 59.507812 206.246094 58.285156 206.71875 57.464844 C 207.179688 56.660156 207.847656 56.121094 208.71875 55.835938 C 209.589844 55.550781 211.019531 55.410156 213.003906 55.410156 C 214.792969 55.410156 216.125 55.5 216.996094 55.683594 C 217.871094 55.867188 218.53125 56.1875 218.988281 56.648438 C 219.308594 56.980469 219.542969 57.363281 219.691406 57.792969 C 219.835938 58.226562 219.921875 58.804688 219.953125 59.523438 L 218.105469 59.523438 C 218.082031 58.476562 217.738281 57.785156 217.074219 57.453125 C 216.410156 57.121094 215.054688 56.957031 213.003906 56.957031 C 210.996094 56.957031 209.679688 57.160156 209.0625 57.566406 C 208.652344 57.832031 208.359375 58.261719 208.171875 58.851562 C 207.988281 59.441406 207.894531 60.25 207.894531 61.273438 C 207.894531 62.242188 208.007812 63.003906 208.226562 63.566406 C 208.453125 64.125 208.804688 64.527344 209.285156 64.765625 C 209.945312 65.101562 211.421875 65.269531 213.722656 65.269531 C 215.535156 65.269531 216.726562 65.105469 217.296875 64.773438 C 217.863281 64.441406 218.167969 63.730469 218.207031 62.65625 Z M 221.675781 50.667969 L 223.441406 50.667969 L 223.441406 57.203125 L 223.582031 57.203125 C 223.960938 56.503906 224.542969 56.03125 225.339844 55.78125 C 226.132812 55.53125 227.4375 55.40625 229.257812 55.40625 C 230.796875 55.40625 231.964844 55.496094 232.757812 55.675781 C 233.550781 55.855469 234.160156 56.164062 234.597656 56.613281 C 234.96875 57.003906 235.222656 57.484375 235.347656 58.054688 C 235.472656 58.625 235.535156 59.574219 235.535156 60.894531 L 235.535156 66.679688 L 233.773438 66.679688 L 233.773438 61.445312 C 233.773438 60.296875 233.730469 59.5 233.65625 59.054688 C 233.574219 58.609375 233.40625 58.230469 233.148438 57.917969 C 232.863281 57.5625 232.414062 57.316406 231.785156 57.171875 C 231.160156 57.027344 230.246094 56.957031 229.035156 56.957031 C 227.679688 56.957031 226.617188 57.050781 225.855469 57.242188 C 225.09375 57.4375 224.523438 57.742188 224.136719 58.171875 C 223.847656 58.5 223.65625 58.867188 223.566406 59.265625 C 223.484375 59.660156 223.441406 60.390625 223.441406 61.445312 L 223.441406 66.679688 L 221.675781 66.679688 L 221.675781 50.664062 Z M 221.675781 50.667969 " fill-opacity="1" fill-rule="evenodd"></path></g><g clip-path="url(#790bbd9769)"><path fill="#f58634" d="M 43.378906 10.933594 L 42.308594 14.222656 C 42.097656 14.140625 41.882812 14.0625 41.660156 13.988281 L 42.722656 10.722656 Z M 36.1875 10.386719 L 36.859375 13.511719 C 36.628906 13.542969 36.402344 13.574219 36.175781 13.613281 L 35.515625 10.527344 L 36.191406 10.386719 Z M 29.6875 13.496094 L 31.582031 15.585938 C 31.394531 15.722656 31.210938 15.863281 31.035156 16.011719 L 29.171875 13.953125 L 29.6875 13.492188 Z M 25.613281 19.425781 L 27.902344 20.164062 C 27.808594 20.371094 27.726562 20.585938 27.644531 20.800781 L 25.402344 20.078125 L 25.617188 19.421875 Z M 25.066406 26.585938 L 27.085938 26.15625 C 27.117188 26.386719 27.15625 26.613281 27.203125 26.835938 L 25.207031 27.257812 Z M 30.097656 25.515625 L 30.183594 25.5 L 30.324219 26.171875 L 30.203125 26.195312 C 30.160156 25.972656 30.125 25.746094 30.097656 25.515625 Z M 28.183594 33.0625 L 29.613281 31.777344 C 29.761719 31.953125 29.914062 32.125 30.074219 32.289062 L 28.644531 33.574219 Z M 31.894531 29.730469 L 32.070312 29.570312 L 32.53125 30.082031 L 32.351562 30.242188 C 32.191406 30.078125 32.039062 29.90625 31.894531 29.730469 Z M 27.992188 38.3125 L 31.410156 33.484375 C 31.59375 33.621094 31.78125 33.753906 31.972656 33.882812 L 28.554688 38.710938 Z M 48.289062 10.847656 L 44.878906 15.660156 C 44.695312 15.523438 44.507812 15.390625 44.316406 15.265625 L 47.722656 10.453125 Z M 40.035156 7.632812 L 39.496094 13.511719 C 39.269531 13.484375 39.042969 13.464844 38.8125 13.453125 L 39.347656 7.570312 Z M 31.273438 8.957031 L 33.769531 14.339844 C 33.558594 14.429688 33.347656 14.527344 33.144531 14.628906 L 30.648438 9.246094 Z M 22.457031 31.417969 L 27.855469 28.933594 C 27.945312 29.144531 28.042969 29.351562 28.144531 29.554688 L 22.746094 32.042969 Z M 24.355469 14.46875 L 29.230469 17.894531 C 29.089844 18.078125 28.957031 18.265625 28.832031 18.457031 L 23.957031 15.03125 Z M 21.125 22.691406 L 27.058594 23.226562 C 27.03125 23.453125 27.007812 23.679688 26.996094 23.910156 L 21.066406 23.375 Z M 21.125 22.691406 " fill-opacity="1" fill-rule="evenodd"></path></g><g clip-path="url(#bc2c30cc65)"><path fill="#f58634" d="M 44.847656 15.632812 L 82.710938 15.632812 L 82.710938 66.761719 L 31.382812 66.761719 L 31.382812 33.460938 C 33.273438 34.902344 35.628906 35.761719 38.183594 35.761719 C 44.355469 35.761719 49.386719 30.746094 49.386719 24.597656 C 49.386719 20.933594 47.597656 17.671875 44.847656 15.632812 Z M 44.847656 15.632812 " fill-opacity="1" fill-rule="evenodd"></path></g><path fill="#f58634" d="M 38.179688 16.492188 C 42.664062 16.492188 46.316406 20.132812 46.316406 24.597656 C 46.316406 29.0625 42.664062 32.703125 38.179688 32.703125 C 33.699219 32.703125 30.046875 29.0625 30.046875 24.597656 C 30.046875 20.132812 33.699219 16.492188 38.179688 16.492188 Z M 38.179688 16.492188 " fill-opacity="1" fill-rule="evenodd"></path><path fill="#fefefe" d="M 45.097656 26.382812 L 39.253906 17.863281 L 37.65625 21.1875 L 35.988281 21.601562 L 35.082031 22.367188 L 34.945312 23.957031 L 34.320312 24.996094 L 31.1875 25.898438 L 39.253906 31.300781 L 40.367188 29.222656 L 35.015625 26.3125 L 35.222656 25.414062 L 36.472656 24.996094 L 36.613281 23.265625 L 37.933594 23.058594 L 38.492188 22.15625 L 39.324219 21.671875 L 42.734375 26.9375 Z M 45.097656 26.382812 " fill-opacity="1" fill-rule="evenodd"></path><path fill="#fefefe" d="M 56.074219 28.941406 L 73.253906 28.941406 C 77.9375 28.941406 81.710938 33.058594 81.632812 38.09375 L 81.597656 40.492188 L 71.886719 40.492188 C 71.871094 39.914062 71.859375 39.335938 71.84375 38.757812 C 71.65625 37.636719 71.0625 36.914062 70.0625 36.59375 L 58.390625 36.59375 L 58.296875 36.597656 L 58.273438 36.597656 L 58.242188 36.605469 L 58.203125 36.617188 L 58.148438 36.636719 L 58.082031 36.667969 L 58.011719 36.703125 L 57.9375 36.746094 L 57.851562 36.804688 L 57.753906 36.875 L 57.664062 36.949219 L 57.570312 37.039062 L 57.472656 37.136719 L 57.378906 37.242188 L 57.285156 37.359375 L 57.199219 37.480469 L 57.113281 37.613281 L 57.03125 37.75 L 56.957031 37.894531 L 56.886719 38.042969 L 56.816406 38.195312 L 56.757812 38.355469 L 56.707031 38.507812 L 56.664062 38.660156 L 56.625 38.816406 L 56.59375 38.96875 L 56.570312 39.113281 L 56.554688 39.253906 L 56.542969 39.398438 L 56.539062 39.53125 L 56.539062 39.75 C 56.660156 44.859375 56.78125 49.972656 56.902344 55.085938 C 56.898438 56.871094 57.808594 57.855469 59.628906 58.042969 L 70.378906 58.042969 L 70.476562 58.039062 L 70.492188 58.039062 L 70.527344 58.03125 L 70.570312 58.019531 L 70.621094 58 L 70.683594 57.972656 L 70.761719 57.933594 L 70.839844 57.886719 L 70.921875 57.832031 L 71.011719 57.765625 L 71.101562 57.6875 L 71.199219 57.597656 L 71.292969 57.5 L 71.382812 57.398438 L 71.480469 57.277344 L 71.574219 57.152344 L 71.65625 57.023438 L 71.738281 56.886719 L 71.816406 56.742188 L 71.886719 56.59375 L 71.953125 56.445312 L 72.011719 56.292969 L 72.0625 56.132812 L 72.109375 55.972656 L 72.144531 55.824219 L 72.175781 55.675781 L 72.199219 55.527344 L 72.214844 55.382812 L 72.230469 55.117188 L 72.226562 54.898438 L 72.164062 52.179688 L 63.832031 52.179688 L 63.9375 45.144531 L 81.527344 45.144531 L 81.355469 56.546875 C 81.277344 61.578125 77.382812 65.695312 72.695312 65.695312 L 55.515625 65.695312 C 50.828125 65.695312 47.058594 61.578125 47.132812 56.546875 L 47.414062 38.097656 C 47.492188 33.066406 51.386719 28.949219 56.074219 28.949219 Z M 56.074219 28.941406 " fill-opacity="1" fill-rule="evenodd"></path><g clip-path="url(#f41ebbc236)"><path fill="#373435" d="M 236.492188 42.792969 L 236.5 42.792969 C 237.886719 42.792969 239.144531 43.359375 240.054688 44.269531 C 240.960938 45.171875 241.527344 46.421875 241.53125 47.796875 L 241.53125 47.816406 C 241.53125 49.199219 240.960938 50.453125 240.050781 51.359375 C 239.140625 52.265625 237.886719 52.828125 236.507812 52.832031 L 236.484375 52.832031 C 235.097656 52.832031 233.839844 52.265625 232.929688 51.355469 C 232.023438 50.449219 231.457031 49.199219 231.453125 47.824219 L 231.453125 47.800781 C 231.453125 46.421875 232.023438 45.167969 232.933594 44.261719 C 233.84375 43.355469 235.097656 42.792969 236.476562 42.789062 L 236.492188 42.789062 Z M 236.5 43.566406 L 236.476562 43.566406 C 235.3125 43.570312 234.25 44.046875 233.484375 44.808594 C 232.714844 45.574219 232.234375 46.636719 232.234375 47.804688 L 232.234375 47.828125 C 232.234375 48.988281 232.714844 50.042969 233.480469 50.808594 C 234.25 51.578125 235.316406 52.054688 236.484375 52.058594 L 236.507812 52.058594 C 237.671875 52.054688 238.734375 51.578125 239.503906 50.8125 C 240.273438 50.046875 240.753906 48.988281 240.753906 47.820312 L 240.753906 47.796875 C 240.75 46.636719 240.273438 45.578125 239.507812 44.816406 C 238.738281 44.046875 237.671875 43.570312 236.5 43.570312 Z M 234.21875 50.382812 L 234.21875 45.238281 L 236.507812 45.238281 C 236.96875 45.238281 237.320312 45.285156 237.558594 45.378906 C 237.796875 45.472656 237.988281 45.632812 238.132812 45.867188 C 238.277344 46.101562 238.347656 46.359375 238.347656 46.640625 C 238.347656 47.007812 238.230469 47.316406 237.992188 47.566406 C 237.753906 47.816406 237.386719 47.976562 236.890625 48.042969 C 237.074219 48.132812 237.210938 48.214844 237.304688 48.300781 C 237.503906 48.484375 237.695312 48.710938 237.871094 48.984375 L 238.769531 50.382812 L 237.910156 50.382812 L 237.226562 49.3125 C 237.027344 49.003906 236.863281 48.769531 236.734375 48.605469 C 236.605469 48.441406 236.488281 48.328125 236.386719 48.261719 C 236.285156 48.195312 236.179688 48.152344 236.074219 48.125 C 235.996094 48.109375 235.871094 48.101562 235.691406 48.101562 L 234.902344 48.101562 L 234.902344 50.382812 Z M 234.902344 47.511719 L 236.371094 47.511719 C 236.679688 47.511719 236.925781 47.480469 237.101562 47.414062 C 237.277344 47.347656 237.414062 47.246094 237.503906 47.105469 C 237.59375 46.964844 237.640625 46.8125 237.640625 46.644531 C 237.640625 46.402344 237.554688 46.199219 237.375 46.042969 C 237.199219 45.886719 236.917969 45.8125 236.535156 45.8125 L 234.902344 45.8125 Z M 234.902344 47.511719 " fill-opacity="1" fill-rule="evenodd"></path></g></svg>